<svg width="1280" height="1848" viewBox="0 0 1280 1848" fill="none" xmlns="http://www.w3.org/2000/svg">
    <g style="mix-blend-mode:overlay">
        <path d="M1522.82 1711.4L1194.2 1301.04L1023.78 1412.31L956.341 1537.25" stroke="#F7FAFB" stroke-width="1.37277" stroke-miterlimit="10"/>
    </g>
    <g style="mix-blend-mode:overlay">
        <path d="M56.7245 378.355L-178.184 502.757L-12.4563 1300.5L190.044 951.803L371.96 744.194" stroke="#F7FAFB" stroke-width="1.37277" stroke-miterlimit="10"/>
    </g>
    <g style="mix-blend-mode:overlay">
        <path d="M-165.267 0.603531L105.765 147.421L-178.184 502.756L-243 1150.5L-91.0145 1612.96" stroke="#F7FAFB" stroke-width="1.37277" stroke-miterlimit="10"/>
    </g>
    <g style="mix-blend-mode:overlay">
        <path d="M61.3543 662.032L-12.4563 1300.5L-95.5264 1624.01L125.787 1846.12L447.894 1440.27L691.148 1568.49" stroke="#F7FAFB" stroke-width="1.37277" stroke-miterlimit="10"/>
    </g>
    <g style="mix-blend-mode:overlay">
        <path d="M61.3543 662.032L190.044 951.802L447.894 1440.27L-76.3291 1386.21" stroke="#F7FAFB" stroke-width="1.37277" stroke-miterlimit="10"/>
    </g>
    <g style="mix-blend-mode:overlay">
        <path d="M1416.72 251.451L1437.48 24.0178L1023.78 439.735L1287.85 782.612" stroke="#F7FAFB" stroke-width="1.37277" stroke-miterlimit="10"/>
    </g>
    <g style="mix-blend-mode:overlay">
        <path d="M965.305 413.637L908.215 697.905L669.031 559.681L506.4 672.034" stroke="#F7FAFB" stroke-width="1.37277" stroke-miterlimit="10"/>
    </g>
    <g style="mix-blend-mode:overlay">
        <path d="M1069.75 1081.25L917.18 1263.62L695.335 1098.21L566.321 1091.03" stroke="#F7FAFB" stroke-width="1.37277" stroke-miterlimit="10"/>
    </g>
    <g style="mix-blend-mode:overlay">
        <path d="M998.156 1316.09L917.18 1263.62L623.766 1333.05L404.192 1062.7" stroke="#F7FAFB" stroke-width="1.37277" stroke-miterlimit="10"/>
    </g>
    <g style="mix-blend-mode:overlay">
        <path d="M616.128 516.67L762.481 133.19L755.256 315.382L544.736 279.325L430.614 491.935L216.023 448.467" stroke="#F7FAFB" stroke-width="1.37277" stroke-miterlimit="10"/>
    </g>
</svg>
