<svg width="1280" height="3051" viewBox="0 0 1280 3051" fill="none" xmlns="http://www.w3.org/2000/svg">
    <g style="mix-blend-mode:overlay">
        <path d="M1583.82 2826.81L1255.2 2148.9L1084.78 2332.7L1017.34 2539.12" stroke="#F7FAFB" stroke-width="1.37277" stroke-miterlimit="10"/>
    </g>
    <g style="mix-blend-mode:overlay">
        <path d="M117.725 624.574L-117.184 830.091L48.5437 2148L251.044 1571.93L432.96 1228.96" stroke="#F7FAFB" stroke-width="1.37277" stroke-miterlimit="10"/>
    </g>
    <g style="mix-blend-mode:overlay">
        <path d="M-104.267 0.511475L166.765 243.06L-117.184 830.09L-182 1900.19L-30.0145 2664.19" stroke="#F7FAFB" stroke-width="1.37277" stroke-miterlimit="10"/>
    </g>
    <g style="mix-blend-mode:overlay">
        <path d="M122.354 1093.22L48.5438 2148L-34.5263 2682.44L186.788 3049.39L508.894 2378.9L752.148 2590.73" stroke="#F7FAFB" stroke-width="1.37277" stroke-miterlimit="10"/>
    </g>
    <g style="mix-blend-mode:overlay">
        <path d="M122.354 1093.22L251.044 1571.93L508.894 2378.9L-15.3292 2289.59" stroke="#F7FAFB" stroke-width="1.37277" stroke-miterlimit="10"/>
    </g>
    <g style="mix-blend-mode:overlay">
        <path d="M1477.72 414.921L1498.48 39.1926L1084.78 725.976L1348.85 1292.42" stroke="#F7FAFB" stroke-width="1.37277" stroke-miterlimit="10"/>
    </g>
    <g style="mix-blend-mode:overlay">
        <path d="M1026.31 682.86L969.215 1152.48L730.031 924.132L567.4 1109.74" stroke="#F7FAFB" stroke-width="1.37277" stroke-miterlimit="10"/>
    </g>
    <g style="mix-blend-mode:overlay">
        <path d="M1130.76 1785.79L978.18 2087.08L756.335 1813.8L627.321 1801.94" stroke="#F7FAFB" stroke-width="1.37277" stroke-miterlimit="10"/>
    </g>
    <g style="mix-blend-mode:overlay">
        <path d="M1059.16 2173.76L978.18 2087.07L684.766 2201.78L465.192 1755.14" stroke="#F7FAFB" stroke-width="1.37277" stroke-miterlimit="10"/>
    </g>
    <g style="mix-blend-mode:overlay">
        <path d="M677.128 853.075L823.481 219.549L816.256 520.538L605.735 460.971L491.614 812.212L277.023 740.402" stroke="#F7FAFB" stroke-width="1.37277" stroke-miterlimit="10"/>
    </g>
</svg>
