<svg width="12" height="12" viewBox="0 0 12 12" fill="none" xmlns="http://www.w3.org/2000/svg">
    <path d="M11.3665 1.82303L7.16777 6.02175L11.3315 10.1855C11.6814 10.5004 11.6814 11.0252 11.3315 11.3401C11.0166 11.69 10.4918 11.69 10.1769 11.3401L5.97814 7.1764L1.81441 11.3401C1.4995 11.69 0.974663 11.69 0.659759 11.3401C0.309866 11.0252 0.309866 10.5004 0.659759 10.1505L4.82349 5.98676L0.659759 1.82303C0.309866 1.50813 0.309866 0.983288 0.659759 0.633395C0.974663 0.318491 1.4995 0.318491 1.8494 0.633395L6.01313 4.83211L10.1769 0.668384C10.4918 0.318491 11.0166 0.318491 11.3665 0.668384C11.6814 0.983288 11.6814 1.50813 11.3665 1.82303Z" fill="#fff"/>
</svg>
